<svg xmlns="http://www.w3.org/2000/svg" viewBox="0 0 20 20" fill="none">
  <path d="M17.7294 7.82827C16.8295 7.82827 15.6909 7.93111 14.5614 8.11109C15.4852 7.44076 16.3649 6.70798 17.0003 6.07069C18.9599 4.11294 17.8855 3.80991 17.0389 2.96143C16.1904 2.11294 15.8874 1.0404 13.9278 2.99816C13.2923 3.63544 12.5577 4.51331 11.8874 5.43892C12.0674 4.30945 12.1702 3.17263 12.1702 2.27089C12.172 -0.49862 11.1987 0.0431603 9.99942 0.0431603C8.80015 0.0431603 7.82679 -0.500456 7.82679 2.27089C7.82679 3.17079 7.92963 4.30945 8.10961 5.43892C7.43928 4.51331 6.7065 3.63544 6.07105 2.99816C4.11146 1.0404 3.81027 2.11294 2.96178 2.96143C2.1133 3.80991 1.04076 4.11294 2.99851 6.07069C3.63396 6.70798 4.51366 7.44076 5.43744 8.11109C4.30981 7.93111 3.17115 7.82827 2.26941 7.82827C-0.501937 7.82827 0.0435163 8.7998 0.0435163 10.0009C0.0435163 11.202 -0.5001 12.1735 2.26941 12.1735C3.16931 12.1735 4.30981 12.0707 5.43744 11.8907C4.51366 12.561 3.63396 13.2938 2.99851 13.9311C1.04076 15.8889 2.1133 16.1919 2.96178 17.0404C3.81027 17.8888 4.1133 18.9614 6.07105 17.0018C6.7065 16.3664 7.44111 15.4885 8.10961 14.5629C7.92963 15.6923 7.82679 16.8292 7.82679 17.7309C7.82679 20.5004 8.80015 19.9568 9.99942 19.9568C11.1987 19.9568 12.172 20.5004 12.172 17.7309C12.172 16.831 12.0692 15.6923 11.8892 14.5629C12.5596 15.4885 13.2923 16.3664 13.9296 17.0018C15.8892 18.9614 16.1922 17.8888 17.0407 17.0404C17.8874 16.1919 18.9617 15.8889 17.0022 13.9311C16.3667 13.2938 15.487 12.561 14.5632 11.8907C15.6909 12.0707 16.8295 12.1735 17.7313 12.1735C20.5008 12.1735 19.9572 11.2002 19.9572 10.0009C19.9572 8.80163 20.5008 7.82827 17.7313 7.82827H17.7294ZM14.6257 10.1478C11.3272 10.6565 10.6551 8.82184 10.1482 12.1184C10.1225 12.2892 9.87637 12.2892 9.85066 12.1184C9.34377 8.82184 8.6716 10.6565 5.37316 10.1478C5.2042 10.1221 5.2042 9.87785 5.37316 9.8503C8.6716 9.34341 9.34377 8.6694 9.85066 5.37464C9.87637 5.20385 10.1225 5.20385 10.1482 5.37464C10.6551 8.67124 11.3291 9.34341 14.6257 9.8503C14.7946 9.87785 14.7946 10.1221 14.6257 10.1478Z" fill="#FF385C"/>
</svg>