<svg preserveAspectRatio="none" width="100%" height="100%" overflow="visible" style="display: block;" viewBox="0 0 32 32" fill="none" xmlns="http://www.w3.org/2000/svg">
<g id="Symbol Alternative.svg">
<path id="Vector" d="M25.3147 9.21333C25.386 5.50333 22.3247 2.65533 18.1153 2.65533H9.41C9.20708 2.6554 9.01084 2.72789 8.8566 2.85976C8.70237 2.99163 8.60026 3.17422 8.56867 3.37467L5.08 25.172C5.06439 25.2708 5.07038 25.3717 5.09754 25.468C5.1247 25.5642 5.1724 25.6534 5.23734 25.7294C5.30229 25.8055 5.38294 25.8665 5.47374 25.9084C5.56454 25.9503 5.66334 25.972 5.76333 25.972H10.9213L10.1147 31.02C10.0991 31.1188 10.1051 31.2199 10.1323 31.3161C10.1595 31.4124 10.2072 31.5017 10.2722 31.5777C10.3372 31.6537 10.418 31.7148 10.5089 31.7566C10.5997 31.7984 10.6986 31.8201 10.7987 31.82H15C15.2033 31.82 15.384 31.7467 15.538 31.6153C15.692 31.4833 15.7173 31.3013 15.7487 31.1007L16.982 23.844C17.0133 23.644 17.1153 23.384 17.27 23.252C17.424 23.12 17.5587 23.048 17.7613 23.0473H20.3333C24.4553 23.0473 27.9533 20.118 28.5927 16.0427C29.0447 13.1493 27.804 10.518 25.3147 9.21333Z" fill="var(--fill-0, #001C64)"/>
<path id="Vector_2" d="M12.0373 17.9333L10.7527 26.08L9.946 31.1893C9.93039 31.2882 9.93639 31.3892 9.96359 31.4855C9.99079 31.5818 10.0385 31.671 10.1036 31.747C10.1686 31.8231 10.2493 31.8841 10.3402 31.9259C10.4311 31.9678 10.53 31.9894 10.63 31.9893H15.0767C15.2795 31.9891 15.4756 31.9165 15.6296 31.7847C15.7837 31.6528 15.8858 31.4703 15.9173 31.27L17.0893 23.8433C17.1209 23.6431 17.223 23.4606 17.3771 23.3289C17.5312 23.1971 17.7273 23.1247 17.93 23.1247H20.548C24.67 23.1247 28.1673 20.118 28.8067 16.0427C29.26 13.15 27.804 10.5187 25.3147 9.21333C25.308 9.52133 25.2813 9.82867 25.234 10.1333C24.5947 14.208 21.0967 17.2153 16.9747 17.2153H12.878C12.6753 17.2154 12.4794 17.2877 12.3253 17.4193C12.1712 17.5509 12.0691 17.7332 12.0373 17.9333Z" fill="var(--fill-0, #0070E0)"/>
<path id="Vector_3" d="M10.752 26.08H5.57867C5.47864 26.0801 5.37978 26.0585 5.28892 26.0166C5.19807 25.9748 5.11737 25.9137 5.0524 25.8377C4.98743 25.7616 4.93975 25.6724 4.91263 25.5761C4.88551 25.4798 4.87961 25.3788 4.89533 25.28L8.38333 3.15867C8.41495 2.95828 8.51708 2.77577 8.67132 2.64401C8.82557 2.51225 9.0218 2.4399 9.22467 2.44H18.116C22.3247 2.44 25.386 5.50333 25.3147 9.21333C24.2673 8.664 23.0367 8.35 21.688 8.35H14.2753C14.0726 8.3502 13.8766 8.42267 13.7225 8.55439C13.5685 8.68611 13.4664 8.86845 13.4347 9.06867L12.038 17.9333L10.752 26.08Z" fill="var(--fill-0, #003087)"/>
</g>
</svg>
