<svg preserveAspectRatio="none" width="100%" height="100%" overflow="visible" style="display: block;" viewBox="0 0 73.3458 32" fill="none" xmlns="http://www.w3.org/2000/svg">
<path id="Vector 142" d="M0 32L11.1198 28.8884L2.86516 20.8141L0 32ZM30.1637 5.29429L30.6048 6.19176L30.1637 5.29429ZM66.3415 3.00319L66.7011 2.07009L66.6473 2.04935L66.5914 2.03493L66.3415 3.00319ZM71.2609 7.26387L72.0013 7.93612L73.3458 6.45548L72.6055 5.78323L71.9332 6.52355L71.2609 7.26387ZM6.29272 25.5666L7.00127 26.2723C12.4257 20.8258 17.1283 16.3899 21.0869 13.0161C25.059 9.63065 28.2325 7.35765 30.6048 6.19176L30.1637 5.29429L29.7226 4.39683C27.1192 5.67632 23.7918 8.08282 19.7896 11.4939C15.7738 14.9165 11.0288 19.3942 5.58417 24.861L6.29272 25.5666ZM30.1637 5.29429L30.6048 6.19176C43.9575 -0.37084 59.7061 2.32316 66.0915 3.97146L66.3415 3.00319L66.5914 2.03493C60.0952 0.35802 43.7452 -2.49499 29.7226 4.39683L30.1637 5.29429ZM66.3415 3.00319L65.9819 3.93629C67.1791 4.39771 68.0437 4.83193 68.8239 5.32914L69.3613 4.48582L69.8987 3.64251C68.9855 3.06053 67.9973 2.56964 66.7011 2.07009L66.3415 3.00319ZM69.3613 4.48582L68.8239 5.32914C69.6021 5.82511 70.2935 6.38535 71.2609 7.26387L71.9332 6.52355L72.6055 5.78323C71.6005 4.87072 70.8139 4.22573 69.8987 3.64251L69.3613 4.48582Z" fill="var(--stroke-0, #16B364)"/>
</svg>
