<svg preserveAspectRatio="none" width="100%" height="100%" overflow="visible" style="display: block;" viewBox="0 0 54.3885 18" fill="none" xmlns="http://www.w3.org/2000/svg">
<path id="Vector 141" d="M0 18L11.4615 16.5973L4.51601 7.3727L0 18ZM22.2244 3.35492L22.568 4.29406L22.2244 3.35492ZM48.8801 2.09851L49.1558 1.13728L49.1127 1.12492L49.0687 1.11647L48.8801 2.09851ZM52.44 4.85755L53.2686 5.41751L54.3885 3.76046L53.56 3.20051L53 4.02903L52.44 4.85755ZM7.18924 12.587L7.77827 13.3951C14.5073 8.49036 19.4515 5.43408 22.568 4.29406L22.2244 3.35492L21.8809 2.41578C18.4675 3.6644 13.316 6.88381 6.60021 11.7789L7.18924 12.587ZM22.2244 3.35492L22.568 4.29406C32.3873 0.702128 43.9867 2.17665 48.6914 3.08055L48.8801 2.09851L49.0687 1.11647C44.2823 0.196871 32.2316 -1.37052 21.8809 2.41578L22.2244 3.35492ZM48.8801 2.09851L48.6043 3.05975C49.4834 3.3119 50.1127 3.54768 50.6765 3.81508L51.105 2.91157L51.5336 2.00805C50.8496 1.68364 50.1139 1.4121 49.1558 1.13728L48.8801 2.09851ZM51.105 2.91157L50.6765 3.81508C51.2364 4.08067 51.7343 4.38054 52.44 4.85755L53 4.02903L53.56 3.20051C52.8125 2.69534 52.2214 2.33427 51.5336 2.00805L51.105 2.91157Z" fill="var(--stroke-0, #16B364)"/>
</svg>
